<svg xmlns="http://www.w3.org/2000/svg" width="23" height="23" viewBox="0 0 23 23">
  <defs>
    <style>
      .cls-1 {
        fill: #fff;
        fill-rule: evenodd;
      }
    </style>
  </defs>
  <path id="Shape_248_copy" data-name="Shape 248 copy" class="cls-1" d="M461.206,528.993A4.364,4.364,0,0,0,458.4,530.1a11.5,11.5,0,1,0,6.591,10.4v-7.1c-0.022-3.037-1.974-4.41-3.78-4.41h0Zm0.909,11.508H454.75c-1.629,0-2.021-.807-0.867-1.96l2.08-2.016a4.922,4.922,0,0,0-2.742-.79,5.027,5.027,0,1,0,3.542,8.586,5.294,5.294,0,0,0,.671-0.832,1.667,1.667,0,0,1,1.406-.767,1.644,1.644,0,0,1,.9.266,1.671,1.671,0,0,1,.5,2.307,8.558,8.558,0,0,1-1.122,1.388,8.352,8.352,0,1,1-.774-12.481l1.658-1.667a1.861,1.861,0,0,1,1.208-.662c0.541,0,.9.535,0.908,1.531v7.1h-0.006Zm-10.169.072c0.232,0.564.9,1.366,2.8,1.366h1.865a4.552,4.552,0,0,1-.881,1.305,3.792,3.792,0,0,1-2.514,1.071,3.537,3.537,0,0,1-3.569-3.548,3.065,3.065,0,0,1,1.043-2.307,3.367,3.367,0,0,1,2.526-.836,3.506,3.506,0,0,1-.353.177c-1.344,1.343-1.154,2.209-.921,2.77v0Z" transform="translate(-442 -529)"/>
</svg>
